<?xml version="1.0" encoding="UTF-8" standalone="no"?>
<svg
   width="600"
   height="600"
   viewBox="0 0 600 600"
   version="1.1"
   xml:space="preserve"
   style="clip-rule:evenodd;fill-rule:evenodd;stroke-linecap:round;stroke-miterlimit:1"
   id="svg160"
   sodipodi:docname="embedme_robi_v8_ver_mono.svg"
   inkscape:version="1.2.2 (732a01da63, 2022-12-09)"
   inkscape:export-filename="embedme_vertical_mono_whitebg.png"
   inkscape:export-xdpi="96"
   inkscape:export-ydpi="96"
   xmlns:inkscape="http://www.inkscape.org/namespaces/inkscape"
   xmlns:sodipodi="http://sodipodi.sourceforge.net/DTD/sodipodi-0.dtd"
   xmlns="http://www.w3.org/2000/svg"
   xmlns:svg="http://www.w3.org/2000/svg"><rect
   style="display:inline;fill:#ffffff;stroke-width:7.48636;stroke-linecap:round;stroke-linejoin:round"
   id="rect333"
   width="600"
   height="600"
   x="0"
   y="0"
   ry="0" /><defs
   id="defs164"><inkscape:path-effect
   effect="envelope"
   id="path-effect1566"
   is_visible="true"
   lpeversion="1"
   yy="false"
   xx="true"
   bendpath1="M -178.21967,93.185814 H -43.898819"
   bendpath2="M -43.898819,93.185814 V 349.67806"
   bendpath3="M -178.21967,349.67806 H -43.898819"
   bendpath4="M -178.21967,93.185814 V 349.67806" />
        
        
        
    </defs><sodipodi:namedview
   id="namedview162"
   pagecolor="#ffffff"
   bordercolor="#000000"
   borderopacity="0.25"
   inkscape:showpageshadow="2"
   inkscape:pageopacity="0.0"
   inkscape:pagecheckerboard="true"
   inkscape:deskcolor="#d1d1d1"
   showgrid="false"
   inkscape:zoom="0.8095703"
   inkscape:cx="445.29796"
   inkscape:cy="224.81062"
   inkscape:window-width="1920"
   inkscape:window-height="1009"
   inkscape:window-x="-8"
   inkscape:window-y="-8"
   inkscape:window-maximized="1"
   inkscape:current-layer="svg160"
   borderlayer="false"
   showguides="true" />
    
    
    
    
    
    
    
    
    
<g
   id="g14718"><g
     id="g13175"><g
       id="g13108"
       style="fill:#000000"
       transform="translate(6.7840915e-7,0.00459672)"><path
         id="path13106"
         style="color:#000000;clip-rule:nonzero;fill:#000000;fill-rule:nonzero;stroke-linejoin:round;-inkscape-stroke:none"
         d="m 313.32422,238.91016 c -1.65685,0 -3,1.34315 -3,3 v 10.48242 c 0,1.65685 1.34315,3 3,3 1.65685,0 3,-1.34315 3,-3 v -10.48242 c 0,-1.65685 -1.34315,-3 -3,-3 z m 4.7e-4,3.00069 v 10.48122 0 m -68.90408,-128.14389 75.37776,22.7846 c 2.8487,0.86108 6.39593,4.51759 6.39593,8.9784 v 176.52971 c 0,4.46082 -3.57994,8.13879 -6.39593,9.13281 l -75.37776,26.60773 c -2.816,0.99402 -7.78859,-2.98081 -7.78559,-7.44162 l 0.1544,-229.4588 c 0.003,-4.46081 4.78269,-7.99448 7.63119,-7.13283 z"
         sodipodi:nodetypes="sssssssccccsssssssc" /></g><g
       id="g3023"
       transform="rotate(90,334.12826,219.8261)"
       style="fill:none"><rect
         style="fill:none;fill-opacity:1;stroke:#000000;stroke-width:6;stroke-linecap:round;stroke-linejoin:round;stroke-dasharray:none;stroke-opacity:1"
         id="rect3015"
         width="48.125858"
         height="29.532785"
         x="-559.20514"
         y="-179.73454"
         ry="5.3311558"
         transform="scale(-1)" /><rect
         style="fill:none;fill-opacity:1;stroke:#000000;stroke-width:6;stroke-linecap:round;stroke-linejoin:round;stroke-dasharray:none;stroke-opacity:1"
         id="rect3017"
         width="48.125858"
         height="29.532785"
         x="-559.20514"
         y="-357.70697"
         ry="5.3311558"
         transform="scale(-1)" /><rect
         style="fill:none;fill-opacity:1;stroke:#000000;stroke-width:6;stroke-linecap:round;stroke-linejoin:round;stroke-dasharray:none;stroke-opacity:1"
         id="rect3019"
         width="48.125858"
         height="29.532785"
         x="-559.20514"
         y="-239.05869"
         ry="5.3311558"
         transform="scale(-1)" /><rect
         style="fill:none;fill-opacity:1;stroke:#000000;stroke-width:6;stroke-linecap:round;stroke-linejoin:round;stroke-dasharray:none;stroke-opacity:1"
         id="rect3021"
         width="48.125858"
         height="29.532785"
         x="-559.20514"
         y="-298.38281"
         ry="5.3311558"
         transform="scale(-1)" /></g><g
       id="g3013"
       transform="rotate(90,508.62444,45.329915)"
       style="fill:none"><rect
         style="fill:none;fill-opacity:1;stroke:#000000;stroke-width:6;stroke-linecap:round;stroke-linejoin:round;stroke-dasharray:none;stroke-opacity:1"
         id="rect3005"
         width="48.125858"
         height="29.532785"
         x="-559.20514"
         y="-179.73454"
         ry="5.3311558"
         transform="scale(-1)" /><rect
         style="fill:none;fill-opacity:1;stroke:#000000;stroke-width:6;stroke-linecap:round;stroke-linejoin:round;stroke-dasharray:none;stroke-opacity:1"
         id="rect3007"
         width="48.125858"
         height="29.532785"
         x="-559.20514"
         y="-357.70697"
         ry="5.3311558"
         transform="scale(-1)" /><rect
         style="fill:none;fill-opacity:1;stroke:#000000;stroke-width:6;stroke-linecap:round;stroke-linejoin:round;stroke-dasharray:none;stroke-opacity:1"
         id="rect3009"
         width="48.125858"
         height="29.532785"
         x="-559.20514"
         y="-239.05869"
         ry="5.3311558"
         transform="scale(-1)" /><rect
         style="fill:none;fill-opacity:1;stroke:#000000;stroke-width:6;stroke-linecap:round;stroke-linejoin:round;stroke-dasharray:none;stroke-opacity:1"
         id="rect3011"
         width="48.125858"
         height="29.532785"
         x="-559.20514"
         y="-298.38281"
         ry="5.3311558"
         transform="scale(-1)" /></g><g
       id="g3003"
       transform="translate(-409.63839,-7.610502)"
       style="fill:none"><rect
         style="fill:none;fill-opacity:1;stroke:#000000;stroke-width:6;stroke-linecap:round;stroke-linejoin:round;stroke-dasharray:none;stroke-opacity:1"
         id="rect2995"
         width="48.125858"
         height="29.532785"
         x="-559.20514"
         y="-179.73454"
         ry="5.3311558"
         transform="scale(-1)" /><rect
         style="fill:none;fill-opacity:1;stroke:#000000;stroke-width:6;stroke-linecap:round;stroke-linejoin:round;stroke-dasharray:none;stroke-opacity:1"
         id="rect2997"
         width="48.125858"
         height="29.532785"
         x="-559.20514"
         y="-357.70697"
         ry="5.3311558"
         transform="scale(-1)" /><rect
         style="fill:none;fill-opacity:1;stroke:#000000;stroke-width:6;stroke-linecap:round;stroke-linejoin:round;stroke-dasharray:none;stroke-opacity:1"
         id="rect2999"
         width="48.125858"
         height="29.532785"
         x="-559.20514"
         y="-239.05869"
         ry="5.3311558"
         transform="scale(-1)" /><rect
         style="fill:none;fill-opacity:1;stroke:#000000;stroke-width:6;stroke-linecap:round;stroke-linejoin:round;stroke-dasharray:none;stroke-opacity:1"
         id="rect3001"
         width="48.125858"
         height="29.532785"
         x="-559.20514"
         y="-298.38281"
         ry="5.3311558"
         transform="scale(-1)" /></g><g
       id="g2993"
       transform="translate(-60.646048,-7.610502)"
       style="fill:none"><rect
         style="fill:none;fill-opacity:1;stroke:#000000;stroke-width:6;stroke-linecap:round;stroke-linejoin:round;stroke-dasharray:none;stroke-opacity:1"
         id="rect2981"
         width="48.125858"
         height="29.532785"
         x="-559.20514"
         y="-179.73454"
         ry="5.3311558"
         transform="scale(-1)" /><rect
         style="fill:none;fill-opacity:1;stroke:#000000;stroke-width:6;stroke-linecap:round;stroke-linejoin:round;stroke-dasharray:none;stroke-opacity:1"
         id="rect2983"
         width="48.125858"
         height="29.532785"
         x="-559.20514"
         y="-357.70697"
         ry="5.3311558"
         transform="scale(-1)" /><rect
         style="fill:none;fill-opacity:1;stroke:#000000;stroke-width:6;stroke-linecap:round;stroke-linejoin:round;stroke-dasharray:none;stroke-opacity:1"
         id="rect2985"
         width="48.125858"
         height="29.532785"
         x="-559.20514"
         y="-239.05869"
         ry="5.3311558"
         transform="scale(-1)" /><rect
         style="fill:none;fill-opacity:1;stroke:#000000;stroke-width:6;stroke-linecap:round;stroke-linejoin:round;stroke-dasharray:none;stroke-opacity:1"
         id="rect2987"
         width="48.125858"
         height="29.532785"
         x="-559.20514"
         y="-298.38281"
         ry="5.3311558"
         transform="scale(-1)" /></g><g
       transform="matrix(6.19862,0,0,8.900961,72.87636,-111.21219)"
       id="g146"
       style="fill:#000000;stroke-width:0.80776549;stroke-dasharray:none">
        <path
   id="rect144"
   style="display:inline;stroke:#000000;stroke-linejoin:round;stroke-miterlimit:1.5;fill:#000000;stroke-width:0.80776549;stroke-dasharray:none"
   d="m 25.443026,25.201 h 22.395949 c 0.434904,0 0.785026,0.350121 0.785026,0.785025 v 28.368949 c 0,0.434904 -0.350122,0.785025 -0.785026,0.785025 H 25.443026 c -0.434904,0 -0.785025,-0.350121 -0.785025,-0.785025 V 25.986025 c 0,-0.434904 0.350121,-0.785025 0.785025,-0.785025 z m -9.161631,-2.954728 h 40.719212 c 2.979877,0 5.37884,1.670635 5.37884,3.745819 v 28.356817 c 0,2.075184 -2.398963,3.745818 -5.37884,3.745818 H 16.281395 c -2.979878,0 -5.378841,-1.670634 -5.378841,-3.745818 V 25.992091 c 0,-2.075184 2.398963,-3.745819 5.378841,-3.745819 z" />
    </g><rect
       style="display:inline;fill:none;stroke:#000000;stroke-width:4;stroke-linecap:round;stroke-linejoin:round;stroke-dasharray:none;stroke-opacity:1"
       id="rect1089"
       width="148.23569"
       height="264.96426"
       x="225.88217"
       y="113.86172"
       ry="8.7343464" /></g><g
     id="g1824"
     transform="translate(-50,-22.691403)"><path
       d="m 119.62081,521.77526 c -16.93394,0 -23.47279,5.67065 -23.47279,20.79241 v 13.54656 c 0,15.12176 6.53885,20.79242 23.47279,20.79242 h 36.88581 c 1.25746,0 1.92811,-0.55132 1.92811,-1.73271 v -8.52383 c 0,-1.1814 -0.67065,-1.88256 -1.92811,-1.88003 l -36.63431,0.0736 c -8.71845,0.0176 -11.14959,-1.32614 -11.14959,-9.59585 v -1.33892 h 47.36473 c 1.25748,0 1.84429,-0.5513 1.84429,-1.73269 v -6.22198 c 0,-1.18138 -0.58681,-1.73269 -1.84429,-1.73269 h -47.36473 v -0.78761 c 0,-8.26969 2.43112,-9.73779 11.14959,-9.73053 l 36.63431,0.0305 c 1.25746,9.6e-4 1.92811,-0.55131 1.92811,-1.73268 v -8.49334 c 0,-1.18139 -0.67065,-1.7327 -1.92811,-1.7327 z"
       style="font-size:96.0275px;font-family:Conthrax;-inkscape-font-specification:Conthrax;fill:#000000;stroke:#000000;stroke-width:2;stroke-linejoin:round;stroke-dasharray:none"
       id="path2891"
       sodipodi:nodetypes="sssssssssscsssscsssssss" /><path
       d="m 247.31428,501.65343 c -1.25747,0 -1.92812,0.70236 -1.92812,2.20741 v 52.7776 c 0,14.54895 4.86222,20.26821 19.95187,20.26821 h 23.47278 c 15.08965,0 19.95186,-5.71926 19.95186,-20.26821 v -14.44861 c 0,-14.54895 -4.86221,-20.36854 -19.95186,-20.36854 h -31.43676 v -17.96045 c 0,-1.50505 -0.58682,-2.20741 -1.84429,-2.20741 z m 40.32289,32.20838 c 7.29334,0 9.22146,2.60878 9.22146,11.03713 v 8.93005 c 0,8.42837 -1.92812,11.03714 -9.22146,11.03714 h -21.1255 c -7.20951,0 -9.13762,-2.60877 -9.13762,-11.03714 v -19.96718 z"
       style="font-size:96.0275px;font-family:Conthrax;-inkscape-font-specification:Conthrax;fill:#000000;stroke:#000000;stroke-width:2;stroke-linejoin:round;stroke-dasharray:none"
       id="path2895" /><path
       d="m 411.18915,521.82129 c -15.08964,0 -19.95185,5.81959 -19.95185,20.36854 v 14.44861 c 0,14.54895 4.86221,20.26821 19.95185,20.26821 h 23.4728 c 15.08964,0 19.95188,-5.71926 19.95188,-20.26821 v -52.7776 c 0,-1.50505 -0.58684,-2.20741 -1.8443,-2.20741 h -8.21547 c -1.25749,0 -1.8443,0.70236 -1.8443,2.20741 v 17.96045 z m 22.29916,43.04484 h -21.1255 c -7.20952,0 -9.13763,-2.60877 -9.13763,-11.03714 v -8.93005 c 0,-8.42835 1.92811,-11.03713 9.13763,-11.03713 h 30.34695 v 19.96718 c 0,8.42837 -1.92811,11.03714 -9.22145,11.03714 z"
       style="font-size:96.0275px;font-family:Conthrax;-inkscape-font-specification:Conthrax;fill:#000000;stroke:#000000;stroke-width:2;stroke-linejoin:round;stroke-dasharray:none"
       id="path2899" /><path
       d="m 342.32943,521.77526 c -16.93394,0 -23.4728,5.67065 -23.4728,20.79241 v 13.54656 c 0,15.12176 6.53886,20.79242 23.4728,20.79242 h 36.8858 c 1.25747,0 1.92812,-0.55132 1.92812,-1.73271 v -8.52383 c 0,-1.1814 -0.67065,-1.88256 -1.92812,-1.88003 l -36.63431,0.0736 c -8.71845,0.0176 -11.14957,-1.32614 -11.14957,-9.59585 v -1.33892 h 47.36473 c 1.25746,0 1.84427,-0.5513 1.84427,-1.73269 v -6.22198 c 0,-1.18138 -0.58681,-1.73269 -1.84427,-1.73269 h -47.36473 v -0.78761 c 0,-8.26969 2.43111,-9.73779 11.14957,-9.73053 l 36.63431,0.0305 c 1.25747,9.6e-4 1.92812,-0.55131 1.92812,-1.73268 v -8.49334 c 0,-1.18139 -0.67065,-1.7327 -1.92812,-1.7327 z"
       style="font-size:96.0275px;font-family:Conthrax;-inkscape-font-specification:Conthrax;fill:#000000;stroke:#000000;stroke-width:2;stroke-linejoin:round;stroke-dasharray:none"
       id="path3017"
       sodipodi:nodetypes="sssssssssscsssscsssssss" /><path
       d="m 565.03806,521.77526 c -16.93395,0 -23.4728,5.67065 -23.4728,20.79241 v 13.54656 c 0,15.12176 6.53885,20.79242 23.4728,20.79242 h 36.8858 c 1.25747,0 1.92812,-0.55132 1.92812,-1.73271 v -8.52383 c 0,-1.1814 -0.67065,-1.88256 -1.92812,-1.88003 l -36.63432,0.0736 c -8.71844,0.0176 -11.14957,-1.32614 -11.14957,-9.59585 v -1.33892 h 47.36473 c 1.25746,0 1.84429,-0.5513 1.84429,-1.73269 v -6.22198 c 0,-1.18138 -0.58683,-1.73269 -1.84429,-1.73269 h -47.36473 v -0.78761 c 0,-8.26969 2.43112,-9.73779 11.14957,-9.73053 l 36.63432,0.0305 c 1.25747,9.6e-4 1.92812,-0.55131 1.92812,-1.73268 v -8.49334 c 0,-1.18139 -0.67065,-1.7327 -1.92812,-1.7327 z"
       style="font-size:96.0275px;font-family:Conthrax;-inkscape-font-specification:Conthrax;fill:#000000;stroke:#000000;stroke-width:2;stroke-linejoin:round;stroke-dasharray:none"
       id="path3019"
       sodipodi:nodetypes="sssssssssscsssscsssssss" /><path
       d="m 480.82312,521.82129 c -12.18807,0 -16.11534,5.81959 -16.11534,20.36854 v 32.50939 c 0,1.50505 0.5417,2.20743 1.55737,2.20743 h 8.58349 c 1.01567,0 1.48965,-0.70238 1.48965,-2.20743 V 545.6013 c 0,-8.42835 2.56098,-11.03713 8.38418,-11.03713 h 8.08379 v 40.13505 c 0,1.50505 0.47396,2.20743 1.48965,2.20743 h 7.58727 c 1.01567,0 1.55736,-0.70238 1.55736,-2.20743 v -40.13505 h 8.04147 c 5.89091,0 8.28672,2.60878 8.28672,11.03713 l 10e-6,29.09792 c 0,1.50505 0.47399,2.20743 1.48965,2.20743 h 8.72326 c 1.01568,0 1.48966,-0.70238 1.48966,-2.20743 v -32.50939 c 0,-14.54895 -3.85957,-20.36854 -16.04763,-20.36854 z"
       style="font-size:96.0275px;font-family:Conthrax;-inkscape-font-specification:Conthrax;fill:#000000;stroke:#000000;stroke-width:2;stroke-linejoin:round;stroke-dasharray:none"
       id="path329"
       sodipodi:nodetypes="sssssssscsssscsssssssss" /><path
       d="m 184.64402,521.82129 c -12.18807,0 -16.11534,5.81959 -16.11534,20.36854 v 32.50939 c 0,1.50505 0.5417,2.20743 1.55737,2.20743 h 8.58349 c 1.01567,0 1.48965,-0.70238 1.48965,-2.20743 V 545.6013 c 0,-8.42835 2.56098,-11.03713 8.38418,-11.03713 h 8.08379 v 40.13505 c 0,1.50505 0.47396,2.20743 1.48965,2.20743 h 7.58727 c 1.01567,0 1.55736,-0.70238 1.55736,-2.20743 v -40.13505 h 8.04147 c 5.89091,0 8.28672,2.60878 8.28672,11.03713 l 1e-5,29.09792 c 0,1.50505 0.47399,2.20743 1.48965,2.20743 h 8.72326 c 1.01568,0 1.48966,-0.70238 1.48966,-2.20743 v -32.50939 c 0,-14.54895 -3.85957,-20.36854 -16.04763,-20.36854 z"
       style="font-size:96.0275px;font-family:Conthrax;-inkscape-font-specification:Conthrax;fill:#000000;stroke:#000000;stroke-width:2;stroke-linejoin:round;stroke-dasharray:none"
       id="path431"
       sodipodi:nodetypes="sssssssscsssscsssssssss" /></g></g></svg>
